# MagicaVoxel @ Ephtracy

# group
o 

# material
mtllib road_corner.mtl
usemtl palette

# normals
vn -1 0 0
vn 1 0 0
vn 0 0 1
vn 0 0 -1
vn 0 -1 0
vn 0 1 0

# texcoords
vt 0.970703 0.5
vt 0.974609 0.5
vt 0.978516 0.5
vt 0.982422 0.5

# verts
v -0.8 -1 0.8
v -0.8 -1 -0.8
v -0.8 -0.9 0.8
v -0.8 -0.9 0.6
v -0.8 -0.9 0.5
v -0.8 -0.9 0.1
v -0.8 -0.9 -0.1
v -0.8 -0.9 -0.5
v -0.8 -0.9 -0.6
v -0.8 -0.9 -0.8
v -0.8 -0.8 0.6
v -0.8 -0.8 0.5
v -0.8 -0.8 0.1
v -0.8 -0.8 -0.1
v -0.8 -0.8 -0.5
v -0.8 -0.8 -0.6
v -0.6 -0.9 0.8
v -0.6 -0.9 0.6
v -0.6 -0.8 0.8
v -0.6 -0.8 0.6
v 0.6 -0.9 0.8
v 0.6 -0.9 -0.6
v 0.6 -0.8 0.8
v 0.6 -0.8 -0.6
v 0.8 -1 0.8
v 0.8 -1 -0.8
v 0.8 -0.9 0.8
v 0.8 -0.9 -0.8
v -0.8 -1 0.8
v -0.8 -0.9 0.8
v -0.6 -0.9 0.8
v -0.6 -0.8 0.8
v -0.5 -0.9 0.8
v -0.5 -0.8 0.8
v -0.1 -0.9 0.8
v -0.1 -0.8 0.8
v 0.1 -0.9 0.8
v 0.1 -0.8 0.8
v 0.5 -0.9 0.8
v 0.5 -0.8 0.8
v 0.6 -0.9 0.8
v 0.6 -0.8 0.8
v 0.8 -1 0.8
v 0.8 -0.9 0.8
v -0.8 -0.9 0.6
v -0.8 -0.8 0.6
v -0.6 -0.9 0.6
v -0.6 -0.8 0.6
v -0.8 -0.9 -0.6
v -0.8 -0.8 -0.6
v 0.6 -0.9 -0.6
v 0.6 -0.8 -0.6
v -0.8 -1 -0.8
v -0.8 -0.9 -0.8
v 0.8 -1 -0.8
v 0.8 -0.9 -0.8
v -0.8 -1 0.8
v 0.8 -1 0.8
v -0.8 -1 -0.8
v 0.8 -1 -0.8
v -0.8 -0.9 0.8
v -0.6 -0.9 0.8
v 0.6 -0.9 0.8
v 0.8 -0.9 0.8
v -0.8 -0.9 0.6
v -0.6 -0.9 0.6
v -0.8 -0.9 -0.6
v 0.6 -0.9 -0.6
v -0.8 -0.9 -0.8
v 0.8 -0.9 -0.8
v -0.6 -0.8 0.8
v -0.5 -0.8 0.8
v -0.1 -0.8 0.8
v 0.1 -0.8 0.8
v 0.5 -0.8 0.8
v 0.6 -0.8 0.8
v -0.1 -0.8 0.7
v 0.1 -0.8 0.7
v -0.8 -0.8 0.6
v -0.6 -0.8 0.6
v -0.8 -0.8 0.5
v -0.5 -0.8 0.5
v -0.1 -0.8 0.5
v 0.1 -0.8 0.5
v -0.1 -0.8 0.3
v 0.1 -0.8 0.3
v -0.8 -0.8 0.1
v -0.7 -0.8 0.1
v -0.5 -0.8 0.1
v -0.3 -0.8 0.1
v -0.1 -0.8 0.1
v 0.1 -0.8 0.1
v -0.8 -0.8 -0.1
v -0.7 -0.8 -0.1
v -0.5 -0.8 -0.1
v -0.3 -0.8 -0.1
v -0.1 -0.8 -0.1
v 0.1 -0.8 -0.1
v -0.8 -0.8 -0.5
v 0.5 -0.8 -0.5
v -0.8 -0.8 -0.6
v 0.6 -0.8 -0.6

# faces
f 3/1/1 2/1/1 1/1/1
f 4/1/1 2/1/1 3/1/1
f 5/1/1 2/1/1 4/1/1
f 6/1/1 2/1/1 5/1/1
f 7/1/1 2/1/1 6/1/1
f 8/1/1 2/1/1 7/1/1
f 9/1/1 2/1/1 8/1/1
f 10/1/1 2/1/1 9/1/1
f 11/2/1 5/2/1 4/2/1
f 12/3/1 6/3/1 5/3/1
f 12/2/1 5/2/1 11/2/1
f 13/4/1 7/4/1 6/4/1
f 13/3/1 6/3/1 12/3/1
f 14/3/1 8/3/1 7/3/1
f 14/4/1 7/4/1 13/4/1
f 15/2/1 9/2/1 8/2/1
f 15/3/1 8/3/1 14/3/1
f 16/2/1 9/2/1 15/2/1
f 19/2/1 18/2/1 17/2/1
f 20/2/1 18/2/1 19/2/1
f 21/2/2 22/2/2 23/2/2
f 23/2/2 22/2/2 24/2/2
f 25/1/2 26/1/2 27/1/2
f 27/1/2 26/1/2 28/1/2
f 31/1/3 30/1/3 29/1/3
f 33/1/3 31/1/3 29/1/3
f 33/2/3 32/2/3 31/2/3
f 34/2/3 32/2/3 33/2/3
f 35/1/3 33/1/3 29/1/3
f 35/3/3 34/3/3 33/3/3
f 36/3/3 34/3/3 35/3/3
f 37/1/3 35/1/3 29/1/3
f 37/4/3 36/4/3 35/4/3
f 38/4/3 36/4/3 37/4/3
f 39/1/3 37/1/3 29/1/3
f 39/3/3 38/3/3 37/3/3
f 40/3/3 38/3/3 39/3/3
f 41/1/3 39/1/3 29/1/3
f 41/2/3 40/2/3 39/2/3
f 42/2/3 40/2/3 41/2/3
f 43/1/3 41/1/3 29/1/3
f 44/1/3 41/1/3 43/1/3
f 47/2/3 46/2/3 45/2/3
f 48/2/3 46/2/3 47/2/3
f 49/2/4 50/2/4 51/2/4
f 51/2/4 50/2/4 52/2/4
f 53/1/4 54/1/4 55/1/4
f 55/1/4 54/1/4 56/1/4
f 59/1/5 58/1/5 57/1/5
f 60/1/5 58/1/5 59/1/5
f 61/1/6 62/1/6 65/1/6
f 65/1/6 62/1/6 66/1/6
f 63/1/6 64/1/6 68/1/6
f 67/1/6 68/1/6 69/1/6
f 68/1/6 64/1/6 70/1/6
f 69/1/6 68/1/6 70/1/6
f 72/3/6 73/3/6 77/3/6
f 73/4/6 74/4/6 77/4/6
f 74/3/6 75/3/6 78/3/6
f 77/4/6 74/4/6 78/4/6
f 71/2/6 72/2/6 80/2/6
f 79/2/6 80/2/6 81/2/6
f 72/3/6 77/3/6 82/3/6
f 81/2/6 80/2/6 82/2/6
f 77/3/6 78/3/6 82/3/6
f 80/2/6 72/2/6 82/2/6
f 82/3/6 78/3/6 83/3/6
f 78/3/6 75/3/6 84/3/6
f 83/3/6 78/3/6 84/3/6
f 82/3/6 83/3/6 85/3/6
f 81/3/6 82/3/6 85/3/6
f 83/4/6 84/4/6 85/4/6
f 84/3/6 75/3/6 86/3/6
f 85/4/6 84/4/6 86/4/6
f 81/3/6 85/3/6 87/3/6
f 85/3/6 86/3/6 87/3/6
f 87/3/6 86/3/6 88/3/6
f 88/3/6 86/3/6 89/3/6
f 89/3/6 86/3/6 90/3/6
f 90/3/6 86/3/6 91/3/6
f 86/3/6 75/3/6 92/3/6
f 91/3/6 86/3/6 92/3/6
f 87/4/6 88/4/6 93/4/6
f 88/3/6 89/3/6 94/3/6
f 93/4/6 88/4/6 94/4/6
f 89/4/6 90/4/6 95/4/6
f 94/3/6 89/3/6 95/3/6
f 90/3/6 91/3/6 96/3/6
f 95/4/6 90/4/6 96/4/6
f 91/4/6 92/4/6 97/4/6
f 96/3/6 91/3/6 97/3/6
f 92/3/6 75/3/6 98/3/6
f 97/4/6 92/4/6 98/4/6
f 94/3/6 95/3/6 99/3/6
f 96/3/6 97/3/6 99/3/6
f 97/3/6 98/3/6 99/3/6
f 95/3/6 96/3/6 99/3/6
f 93/3/6 94/3/6 99/3/6
f 98/3/6 75/3/6 100/3/6
f 99/3/6 98/3/6 100/3/6
f 75/2/6 76/2/6 100/2/6
f 99/2/6 100/2/6 101/2/6
f 100/2/6 76/2/6 102/2/6
f 101/2/6 100/2/6 102/2/6
