# MagicaVoxel @ Ephtracy

# group
o 

# material
mtllib road_straight.mtl
usemtl palette

# normals
vn -1 0 0
vn 1 0 0
vn 0 0 1
vn 0 0 -1
vn 0 -1 0
vn 0 1 0

# texcoords
vt 0.970703 0.5
vt 0.974609 0.5
vt 0.978516 0.5
vt 0.982422 0.5

# verts
v -0.8 0 0.8
v -0.8 0 -0.8
v -0.8 0.1 0.8
v -0.8 0.1 0.6
v -0.8 0.1 0.5
v -0.8 0.1 0.1
v -0.8 0.1 -0.1
v -0.8 0.1 -0.5
v -0.8 0.1 -0.6
v -0.8 0.1 -0.8
v -0.8 0.2 0.6
v -0.8 0.2 0.5
v -0.8 0.2 0.1
v -0.8 0.2 -0.1
v -0.8 0.2 -0.5
v -0.8 0.2 -0.6
v 0.8 0 0.8
v 0.8 0 -0.8
v 0.8 0.1 0.8
v 0.8 0.1 0.6
v 0.8 0.1 0.5
v 0.8 0.1 0.1
v 0.8 0.1 -0.1
v 0.8 0.1 -0.5
v 0.8 0.1 -0.6
v 0.8 0.1 -0.8
v 0.8 0.2 0.6
v 0.8 0.2 0.5
v 0.8 0.2 0.1
v 0.8 0.2 -0.1
v 0.8 0.2 -0.5
v 0.8 0.2 -0.6
v -0.8 0 0.8
v -0.8 0.1 0.8
v 0.8 0 0.8
v 0.8 0.1 0.8
v -0.8 0.1 0.6
v -0.8 0.2 0.6
v 0.8 0.1 0.6
v 0.8 0.2 0.6
v -0.8 0.1 -0.6
v -0.8 0.2 -0.6
v 0.8 0.1 -0.6
v 0.8 0.2 -0.6
v -0.8 0 -0.8
v -0.8 0.1 -0.8
v 0.8 0 -0.8
v 0.8 0.1 -0.8
v -0.8 0 0.8
v 0.8 0 0.8
v -0.8 0 -0.8
v 0.8 0 -0.8
v -0.8 0.1 0.8
v 0.8 0.1 0.8
v -0.8 0.1 0.6
v 0.8 0.1 0.6
v -0.8 0.1 -0.6
v 0.8 0.1 -0.6
v -0.8 0.1 -0.8
v 0.8 0.1 -0.8
v -0.8 0.2 0.6
v 0.8 0.2 0.6
v -0.8 0.2 0.5
v 0.8 0.2 0.5
v -0.8 0.2 0.1
v -0.7 0.2 0.1
v -0.5 0.2 0.1
v -0.3 0.2 0.1
v -0.1 0.2 0.1
v 0.1 0.2 0.1
v 0.3 0.2 0.1
v 0.5 0.2 0.1
v 0.7 0.2 0.1
v 0.8 0.2 0.1
v -0.8 0.2 -0.1
v -0.7 0.2 -0.1
v -0.5 0.2 -0.1
v -0.3 0.2 -0.1
v -0.1 0.2 -0.1
v 0.1 0.2 -0.1
v 0.3 0.2 -0.1
v 0.5 0.2 -0.1
v 0.7 0.2 -0.1
v 0.8 0.2 -0.1
v -0.8 0.2 -0.5
v 0.8 0.2 -0.5
v -0.8 0.2 -0.6
v 0.8 0.2 -0.6

# faces
f 3/1/1 2/1/1 1/1/1
f 4/1/1 2/1/1 3/1/1
f 5/1/1 2/1/1 4/1/1
f 6/1/1 2/1/1 5/1/1
f 7/1/1 2/1/1 6/1/1
f 8/1/1 2/1/1 7/1/1
f 9/1/1 2/1/1 8/1/1
f 10/1/1 2/1/1 9/1/1
f 11/2/1 5/2/1 4/2/1
f 12/3/1 6/3/1 5/3/1
f 12/2/1 5/2/1 11/2/1
f 13/4/1 7/4/1 6/4/1
f 13/3/1 6/3/1 12/3/1
f 14/3/1 8/3/1 7/3/1
f 14/4/1 7/4/1 13/4/1
f 15/2/1 9/2/1 8/2/1
f 15/3/1 8/3/1 14/3/1
f 16/2/1 9/2/1 15/2/1
f 17/1/2 18/1/2 19/1/2
f 19/1/2 18/1/2 20/1/2
f 20/1/2 18/1/2 21/1/2
f 21/1/2 18/1/2 22/1/2
f 22/1/2 18/1/2 23/1/2
f 23/1/2 18/1/2 24/1/2
f 24/1/2 18/1/2 25/1/2
f 25/1/2 18/1/2 26/1/2
f 20/2/2 21/2/2 27/2/2
f 21/3/2 22/3/2 28/3/2
f 27/2/2 21/2/2 28/2/2
f 22/4/2 23/4/2 29/4/2
f 28/3/2 22/3/2 29/3/2
f 23/3/2 24/3/2 30/3/2
f 29/4/2 23/4/2 30/4/2
f 24/2/2 25/2/2 31/2/2
f 30/3/2 24/3/2 31/3/2
f 31/2/2 25/2/2 32/2/2
f 35/1/3 34/1/3 33/1/3
f 36/1/3 34/1/3 35/1/3
f 39/2/3 38/2/3 37/2/3
f 40/2/3 38/2/3 39/2/3
f 41/2/4 42/2/4 43/2/4
f 43/2/4 42/2/4 44/2/4
f 45/1/4 46/1/4 47/1/4
f 47/1/4 46/1/4 48/1/4
f 51/1/5 50/1/5 49/1/5
f 52/1/5 50/1/5 51/1/5
f 53/1/6 54/1/6 55/1/6
f 55/1/6 54/1/6 56/1/6
f 57/1/6 58/1/6 59/1/6
f 59/1/6 58/1/6 60/1/6
f 61/2/6 62/2/6 63/2/6
f 63/2/6 62/2/6 64/2/6
f 63/3/6 64/3/6 65/3/6
f 65/3/6 64/3/6 66/3/6
f 66/3/6 64/3/6 67/3/6
f 67/3/6 64/3/6 68/3/6
f 68/3/6 64/3/6 69/3/6
f 69/3/6 64/3/6 70/3/6
f 70/3/6 64/3/6 71/3/6
f 71/3/6 64/3/6 72/3/6
f 72/3/6 64/3/6 73/3/6
f 73/3/6 64/3/6 74/3/6
f 65/4/6 66/4/6 75/4/6
f 66/3/6 67/3/6 76/3/6
f 75/4/6 66/4/6 76/4/6
f 67/4/6 68/4/6 77/4/6
f 76/3/6 67/3/6 77/3/6
f 68/3/6 69/3/6 78/3/6
f 77/4/6 68/4/6 78/4/6
f 69/4/6 70/4/6 79/4/6
f 78/3/6 69/3/6 79/3/6
f 70/3/6 71/3/6 80/3/6
f 79/4/6 70/4/6 80/4/6
f 71/4/6 72/4/6 81/4/6
f 80/3/6 71/3/6 81/3/6
f 72/3/6 73/3/6 82/3/6
f 81/4/6 72/4/6 82/4/6
f 73/4/6 74/4/6 83/4/6
f 82/3/6 73/3/6 83/3/6
f 83/4/6 74/4/6 84/4/6
f 75/3/6 76/3/6 85/3/6
f 76/3/6 77/3/6 85/3/6
f 83/3/6 84/3/6 85/3/6
f 82/3/6 83/3/6 85/3/6
f 81/3/6 82/3/6 85/3/6
f 80/3/6 81/3/6 85/3/6
f 79/3/6 80/3/6 85/3/6
f 78/3/6 79/3/6 85/3/6
f 77/3/6 78/3/6 85/3/6
f 85/3/6 84/3/6 86/3/6
f 85/2/6 86/2/6 87/2/6
f 87/2/6 86/2/6 88/2/6
